<svg width="29" height="40" viewBox="0 0 29 40" fill="none" xmlns="http://www.w3.org/2000/svg">
<path fill-rule="evenodd" clip-rule="evenodd" d="M13.8055 0.0787388C13.8055 0.122045 13.7701 0.157478 13.7268 0.157478C13.6835 0.157478 13.6481 0.181099 13.6481 0.20997C13.6481 0.238841 13.6126 0.262463 13.5693 0.262463C13.526 0.262463 13.4906 0.296006 13.4906 0.337055C13.4906 0.378052 13.4197 0.427184 13.3331 0.446187C13.2465 0.465189 13.1756 0.514322 13.1756 0.555318C13.1756 0.596368 13.1488 0.629911 13.116 0.629911C13.0832 0.629911 13.0026 0.68802 12.9368 0.759043C12.871 0.830012 12.7561 0.903449 12.6814 0.922189C12.6068 0.940929 12.5457 0.989117 12.5457 1.02927C12.5457 1.06948 12.5193 1.10234 12.4871 1.10234C12.4549 1.10234 12.3367 1.19683 12.2247 1.31231C12.1126 1.4278 11.9973 1.52228 11.9684 1.52228C11.9394 1.52228 11.9158 1.55772 11.9158 1.60102C11.9158 1.64433 11.8804 1.67976 11.8371 1.67976C11.7938 1.67976 11.7583 1.71519 11.7583 1.7585C11.7583 1.80181 11.7229 1.83724 11.6796 1.83724C11.6363 1.83724 11.6009 1.87267 11.6009 1.91598C11.6009 1.95928 11.5654 1.99472 11.5221 1.99472C11.4788 1.99472 11.4434 2.03015 11.4434 2.07346C11.4434 2.11676 11.4079 2.15219 11.3646 2.15219C11.3213 2.15219 11.2859 2.18763 11.2859 2.23093C11.2859 2.27424 11.2505 2.30967 11.2072 2.30967C11.1639 2.30967 11.1284 2.3451 11.1284 2.38841C11.1284 2.43172 11.093 2.46715 11.0497 2.46715C11.0064 2.46715 10.9709 2.50258 10.9709 2.54589C10.9709 2.58919 10.9355 2.62463 10.8922 2.62463C10.8489 2.62463 10.8135 2.66006 10.8135 2.70337C10.8135 2.74667 10.778 2.7821 10.7347 2.7821C10.6914 2.7821 10.656 2.80683 10.656 2.83712C10.656 2.86735 10.5969 2.94683 10.5248 3.0137C10.4526 3.08063 10.3935 3.15386 10.3935 3.17653C10.3935 3.19916 10.3108 3.298 10.2098 3.39611C10.1088 3.49427 10.0261 3.59815 10.0261 3.62702C10.0261 3.6559 9.97033 3.73154 9.90214 3.79511C9.83395 3.85867 9.76036 3.96754 9.73852 4.03699C9.71668 4.10644 9.64582 4.21274 9.58104 4.27321C9.51627 4.33368 9.4454 4.43998 9.42357 4.50942C9.40173 4.57887 9.32924 4.68638 9.26241 4.74832C9.19559 4.81021 9.12494 4.92464 9.10541 5.00259C9.08583 5.08049 9.05066 5.14427 9.02719 5.14427C9.00373 5.14427 8.96945 5.21314 8.95092 5.29734C8.93245 5.38159 8.88331 5.46348 8.84179 5.47943C8.80027 5.49539 8.76625 5.5682 8.76625 5.64132C8.76625 5.71439 8.74452 5.77418 8.71791 5.77418C8.69135 5.77418 8.65403 5.84504 8.63502 5.93166C8.61602 6.01827 8.58059 6.08914 8.55628 6.08914C8.53198 6.08914 8.49655 6.16 8.47755 6.24661C8.45854 6.33323 8.42432 6.40409 8.40154 6.40409C8.37875 6.40409 8.347 6.50199 8.33093 6.62162C8.31492 6.74125 8.28002 6.85348 8.2534 6.87096C8.22684 6.88844 8.19046 6.99537 8.17256 7.10849C8.15472 7.22166 8.11844 7.32796 8.09204 7.3447C8.06569 7.3615 8.02653 7.50512 8.00511 7.66391C7.9837 7.8227 7.94789 7.96443 7.92559 7.97887C7.90328 7.9933 7.87656 8.17046 7.86632 8.37256L7.84763 8.74001L8.0576 8.75702C8.17309 8.76641 8.28647 8.80772 8.30957 8.84888C8.33797 8.89959 8.4451 8.92373 8.64137 8.92373C8.82904 8.92373 8.95901 8.9515 9.00998 9.00247C9.05628 9.04877 9.18452 9.08121 9.32115 9.08121C9.4928 9.08121 9.55364 9.10179 9.55364 9.15995C9.55364 9.21801 9.61427 9.23869 9.78424 9.23869C9.94077 9.23869 10.0246 9.26399 10.0451 9.31743C10.0648 9.36892 10.1466 9.39617 10.2813 9.39617C10.4159 9.39617 10.4977 9.42341 10.5175 9.4749C10.5341 9.51821 10.6092 9.55364 10.6843 9.55364C10.7595 9.55364 10.8564 9.58908 10.8997 9.63238C10.943 9.67569 11.0476 9.71112 11.1321 9.71112C11.2338 9.71112 11.2859 9.73779 11.2859 9.78986C11.2859 9.84172 11.3378 9.8686 11.4378 9.8686C11.5243 9.8686 11.6026 9.90246 11.6199 9.94734C11.6364 9.99064 11.7073 10.0261 11.7773 10.0261C11.8473 10.0261 11.9182 10.0615 11.9348 10.1048C11.9514 10.1481 12.0223 10.1836 12.0923 10.1836C12.1623 10.1836 12.2331 10.219 12.2498 10.2623C12.2664 10.3056 12.3397 10.341 12.4129 10.341C12.496 10.341 12.5457 10.3705 12.5457 10.4198C12.5457 10.4631 12.5812 10.4985 12.6245 10.4985C12.6678 10.4985 12.7032 10.5202 12.7032 10.5469C12.7032 10.5734 12.7741 10.6107 12.8607 10.6297C12.9473 10.6487 13.0182 10.6979 13.0182 10.7389C13.0182 10.7799 13.0536 10.8135 13.0969 10.8135C13.1402 10.8135 13.1756 10.8352 13.1756 10.8618C13.1756 10.8884 13.2465 10.9257 13.3331 10.9447C13.4197 10.9637 13.4906 11.0128 13.4906 11.0538C13.4906 11.1017 13.547 11.1284 13.6481 11.1284C13.7491 11.1284 13.8055 11.1017 13.8055 11.0538C13.8055 11.0128 13.8764 10.9637 13.963 10.9447C14.0496 10.9257 14.1205 10.8884 14.1205 10.8618C14.1205 10.8352 14.1559 10.8135 14.1992 10.8135C14.2425 10.8135 14.278 10.7799 14.278 10.7389C14.278 10.6979 14.3488 10.6487 14.4354 10.6297C14.5221 10.6107 14.5929 10.5734 14.5929 10.5469C14.5929 10.5202 14.6284 10.4985 14.6717 10.4985C14.715 10.4985 14.7504 10.4631 14.7504 10.4198C14.7504 10.3673 14.8029 10.341 14.9079 10.341C15.0129 10.341 15.0654 10.3148 15.0654 10.2623C15.0654 10.2098 15.1179 10.1836 15.2228 10.1836C15.3278 10.1836 15.3803 10.1573 15.3803 10.1048C15.3803 10.0523 15.4328 10.0261 15.5378 10.0261C15.6428 10.0261 15.6953 9.99983 15.6953 9.94734C15.6953 9.89485 15.7478 9.8686 15.8527 9.8686C15.9577 9.8686 16.0102 9.84235 16.0102 9.78986C16.0102 9.73737 16.0627 9.71112 16.1677 9.71112C16.2727 9.71112 16.3252 9.68487 16.3252 9.63238C16.3252 9.57406 16.3864 9.55364 16.5614 9.55364C16.7364 9.55364 16.7976 9.53322 16.7976 9.4749C16.7976 9.41658 16.8589 9.39617 17.0338 9.39617C17.2088 9.39617 17.27 9.37575 17.27 9.31743C17.27 9.25911 17.3313 9.23869 17.5063 9.23869C17.6812 9.23869 17.7425 9.21827 17.7425 9.15995C17.7425 9.09943 17.8097 9.08121 18.0328 9.08121C18.2425 9.08121 18.3316 9.05932 18.3534 9.00247C18.3751 8.94609 18.4632 8.92373 18.6641 8.92373C18.8494 8.92373 18.9588 8.8988 18.9866 8.85035C19.0166 8.79791 19.1698 8.77166 19.5229 8.75849C19.8578 8.74594 20.0242 8.71885 20.039 8.67439C20.051 8.63833 20.0944 8.60878 20.1352 8.60878C20.1829 8.60878 20.2096 8.55219 20.2096 8.4513C20.2096 8.36469 20.1894 8.29382 20.1647 8.29382C20.14 8.29382 20.1039 8.12359 20.0845 7.91551C20.0652 7.70743 20.0301 7.52433 20.0064 7.50869C19.9828 7.493 19.9488 7.38759 19.9309 7.27447C19.913 7.16129 19.8776 7.055 19.8522 7.03825C19.8267 7.02145 19.7913 6.91516 19.7734 6.80204C19.7556 6.68886 19.7199 6.58256 19.6942 6.56582C19.6684 6.54902 19.6311 6.44677 19.6112 6.33847C19.5913 6.23024 19.5535 6.14163 19.5272 6.14163C19.501 6.14163 19.464 6.05895 19.445 5.9579C19.4261 5.85686 19.3914 5.77418 19.3681 5.77418C19.3447 5.77418 19.31 5.70331 19.291 5.6167C19.272 5.53009 19.2373 5.45922 19.2138 5.45922C19.1903 5.45922 19.1563 5.40017 19.1382 5.32799C19.1201 5.25582 19.0821 5.19676 19.0538 5.19676C19.0254 5.19676 19.0023 5.14952 19.0023 5.09178C19.0023 5.03346 18.9673 4.98679 18.9236 4.98679C18.8743 4.98679 18.8448 4.93703 18.8448 4.85393C18.8448 4.78081 18.8115 4.70827 18.7708 4.69262C18.7301 4.67703 18.6824 4.6069 18.6648 4.53683C18.6472 4.4667 18.6097 4.40937 18.5814 4.40937C18.553 4.40937 18.5299 4.36213 18.5299 4.30439C18.5299 4.24607 18.4949 4.1994 18.4511 4.1994C18.4078 4.1994 18.3724 4.16397 18.3724 4.12066C18.3724 4.07736 18.3388 4.04193 18.2978 4.04193C18.2568 4.04193 18.2077 3.97106 18.1887 3.88445C18.1697 3.79784 18.1323 3.72697 18.1058 3.72697C18.0792 3.72697 18.0574 3.69154 18.0574 3.64823C18.0574 3.60493 18.022 3.56949 17.9787 3.56949C17.9354 3.56949 17.9 3.53406 17.9 3.49075C17.9 3.44745 17.8671 3.41202 17.8269 3.41202C17.7867 3.41202 17.739 3.35296 17.7209 3.28078C17.7028 3.20861 17.6648 3.14955 17.6365 3.14955C17.6082 3.14955 17.585 3.11412 17.585 3.07081C17.585 3.02751 17.5496 2.99207 17.5063 2.99207C17.463 2.99207 17.4275 2.95591 17.4275 2.91171C17.4275 2.86746 17.3921 2.81769 17.3488 2.80111C17.3055 2.78447 17.27 2.73796 17.27 2.69775C17.27 2.65754 17.2346 2.62463 17.1913 2.62463C17.148 2.62463 17.1126 2.58919 17.1126 2.54589C17.1126 2.50258 17.0771 2.46715 17.0338 2.46715C16.9905 2.46715 16.9551 2.43172 16.9551 2.38841C16.9551 2.3451 16.9197 2.30967 16.8764 2.30967C16.833 2.30967 16.7976 2.27424 16.7976 2.23093C16.7976 2.18763 16.7622 2.15219 16.7189 2.15219C16.6756 2.15219 16.6401 2.11676 16.6401 2.07346C16.6401 2.03015 16.6047 1.99472 16.5614 1.99472C16.5181 1.99472 16.4827 1.95928 16.4827 1.91598C16.4827 1.87267 16.4579 1.83724 16.4276 1.83724C16.3974 1.83724 16.3179 1.77818 16.2511 1.70601C16.1841 1.63383 16.1026 1.57478 16.0698 1.57478C16.037 1.57478 16.0102 1.53934 16.0102 1.49604C16.0102 1.45273 15.9748 1.4173 15.9315 1.4173C15.8882 1.4173 15.8527 1.38187 15.8527 1.33856C15.8527 1.29525 15.8173 1.25982 15.774 1.25982C15.7307 1.25982 15.6953 1.22628 15.6953 1.18523C15.6953 1.14423 15.6244 1.0951 15.5378 1.0761C15.4512 1.05709 15.3803 1.00796 15.3803 0.966965C15.3803 0.925916 15.3449 0.892373 15.3016 0.892373C15.2583 0.892373 15.2228 0.868752 15.2228 0.839881C15.2228 0.81101 15.1874 0.787388 15.1441 0.787388C15.1008 0.787388 15.0654 0.753845 15.0654 0.712796C15.0654 0.671799 14.9945 0.622667 14.9079 0.603664C14.8213 0.584662 14.7504 0.535529 14.7504 0.494533C14.7504 0.453483 14.715 0.41994 14.6717 0.41994C14.6284 0.41994 14.5929 0.396319 14.5929 0.367448C14.5929 0.338577 14.5575 0.314955 14.5142 0.314955C14.4709 0.314955 14.4354 0.281412 14.4354 0.240363C14.4354 0.199366 14.3646 0.150234 14.278 0.131231C14.1914 0.112229 14.1205 0.0749071 14.1205 0.0483459C14.1205 0.0217322 14.0496 0 13.963 0C13.858 0 13.8055 0.0262463 13.8055 0.0787388ZM3.62199 10.2293C3.62199 10.2544 3.48361 10.2906 3.31443 10.3097L3.00693 10.3445L2.97402 10.6969C2.95596 10.8906 2.91717 11.0571 2.88788 11.0669C2.80405 11.0949 2.81612 13.4757 2.90021 13.5037C2.94609 13.5189 2.97123 13.7044 2.98383 14.1203C2.99659 14.5419 3.02336 14.7367 3.07569 14.789C3.11632 14.8297 3.14955 14.9085 3.14955 14.9641C3.14955 15.0551 3.18939 15.0654 3.54325 15.0654C3.75978 15.0654 3.93694 15.0854 3.93694 15.1098C3.93694 15.1343 4.28313 15.1684 4.70617 15.1855C5.12926 15.2026 5.48951 15.2381 5.50668 15.2643C5.52389 15.2904 5.73712 15.3269 5.98047 15.3452C6.22388 15.3635 6.43648 15.3989 6.45291 15.4239C6.46939 15.4489 6.63506 15.4848 6.82109 15.5038C7.00712 15.5228 7.17248 15.5586 7.18854 15.5835C7.2046 15.6083 7.35352 15.6453 7.51956 15.6657C7.68559 15.6861 7.82139 15.7248 7.82139 15.7515C7.82139 15.7783 7.90238 15.8003 8.00138 15.8003C8.10033 15.8003 8.21277 15.8316 8.25115 15.8701C8.28957 15.9084 8.41335 15.9549 8.52626 15.9732C8.63912 15.9915 8.74526 16.0273 8.762 16.0527C8.7788 16.0782 8.8851 16.1136 8.99822 16.1315C9.11139 16.1493 9.21769 16.1848 9.23444 16.2103C9.25123 16.2357 9.32992 16.2724 9.40929 16.2918C9.48866 16.3113 9.55364 16.3504 9.55364 16.3787C9.55364 16.407 9.62524 16.4302 9.71275 16.4302C9.80576 16.4302 9.88445 16.4629 9.90209 16.5089C9.91873 16.5522 9.98959 16.5876 10.0596 16.5876C10.1296 16.5876 10.2005 16.6231 10.217 16.6664C10.2337 16.7097 10.3045 16.7451 10.3745 16.7451C10.4445 16.7451 10.5154 16.7806 10.532 16.8239C10.5486 16.8672 10.6195 16.9026 10.6895 16.9026C10.7595 16.9026 10.8304 16.938 10.847 16.9813C10.8636 17.0246 10.9337 17.0601 11.0028 17.0601C11.0794 17.0601 11.1284 17.0908 11.1284 17.1388C11.1284 17.1821 11.174 17.2176 11.2297 17.2176C11.2853 17.2176 11.3652 17.2518 11.4071 17.2937C11.4489 17.3356 11.5451 17.3854 11.6207 17.4044C11.6964 17.4234 11.7583 17.46 11.7583 17.4857C11.7583 17.5115 11.7938 17.5325 11.8371 17.5325C11.8804 17.5325 11.9158 17.5679 11.9158 17.6112C11.9158 17.6546 11.9512 17.69 11.9945 17.69C12.0379 17.69 12.0733 17.7254 12.0733 17.7687C12.0733 17.812 12.1188 17.8475 12.1745 17.8475C12.2302 17.8475 12.3112 17.8829 12.3545 17.9262C12.3978 17.9695 12.4585 18.0049 12.4895 18.0049C12.5204 18.0049 12.5457 18.0404 12.5457 18.0837C12.5457 18.127 12.5812 18.1624 12.6245 18.1624C12.6678 18.1624 12.7032 18.1979 12.7032 18.2412C12.7032 18.2845 12.7488 18.3199 12.8045 18.3199C12.8601 18.3199 12.9411 18.3553 12.9844 18.3986C13.0277 18.4419 13.0884 18.4774 13.1194 18.4774C13.1503 18.4774 13.1756 18.5128 13.1756 18.5561C13.1756 18.5994 13.2111 18.6349 13.2544 18.6349C13.2977 18.6349 13.3331 18.6703 13.3331 18.7136C13.3331 18.7569 13.3685 18.7923 13.4118 18.7923C13.4552 18.7923 13.4906 18.8278 13.4906 18.8711C13.4906 18.9144 13.526 18.9498 13.5693 18.9498C13.6126 18.9498 13.6481 18.9852 13.6481 19.0285C13.6481 19.0719 13.6835 19.1073 13.7268 19.1073C13.7701 19.1073 13.8055 19.14 13.8055 19.1799C13.8055 19.2608 14.0244 19.3188 14.1782 19.2786C14.2331 19.2642 14.278 19.2198 14.278 19.1799C14.278 19.14 14.3134 19.1073 14.3567 19.1073C14.4 19.1073 14.4354 19.0719 14.4354 19.0285C14.4354 18.9852 14.4709 18.9498 14.5142 18.9498C14.5575 18.9498 14.5929 18.9144 14.5929 18.8711C14.5929 18.8278 14.6284 18.7923 14.6717 18.7923C14.715 18.7923 14.7504 18.7569 14.7504 18.7136C14.7504 18.6703 14.7858 18.6349 14.8291 18.6349C14.8724 18.6349 14.9079 18.5994 14.9079 18.5561C14.9079 18.5128 14.9433 18.4774 14.9866 18.4774C15.0299 18.4774 15.0654 18.4419 15.0654 18.3986C15.0654 18.3553 15.1008 18.3199 15.1441 18.3199C15.1874 18.3199 15.2228 18.2982 15.2228 18.2716C15.2228 18.245 15.2937 18.2077 15.3803 18.1887C15.4669 18.1697 15.5378 18.1205 15.5378 18.0795C15.5378 18.0385 15.5732 18.0049 15.6165 18.0049C15.6598 18.0049 15.6953 17.9695 15.6953 17.9262C15.6953 17.8829 15.7186 17.8475 15.7472 17.8475C15.7757 17.8475 15.8466 17.8068 15.9047 17.7571C16.0345 17.6458 16.0532 17.2832 15.9315 17.2366C15.88 17.2168 15.8527 17.135 15.8527 17.0003C15.8527 16.8656 15.8255 16.7839 15.774 16.7641C15.7291 16.7469 15.6953 16.6686 15.6953 16.582C15.6953 16.482 15.6684 16.4302 15.6165 16.4302C15.5597 16.4302 15.5378 16.3718 15.5378 16.2202C15.5378 16.0685 15.5159 16.0102 15.4591 16.0102C15.4066 16.0102 15.3803 15.9577 15.3803 15.8527C15.3803 15.7478 15.3541 15.6953 15.3016 15.6953C15.2491 15.6953 15.2228 15.6428 15.2228 15.5378C15.2228 15.4328 15.1966 15.3803 15.1441 15.3803C15.1004 15.3803 15.0654 15.3336 15.0654 15.2753C15.0654 15.217 15.0303 15.1703 14.9866 15.1703C14.9376 15.1703 14.9079 15.1208 14.9079 15.0391C14.9079 14.9574 14.8781 14.9079 14.8291 14.9079C14.7854 14.9079 14.7504 14.8612 14.7504 14.8029C14.7504 14.7446 14.7154 14.6979 14.6717 14.6979C14.6227 14.6979 14.5929 14.6484 14.5929 14.5667C14.5929 14.485 14.5632 14.4354 14.5142 14.4354C14.4705 14.4354 14.4354 14.3888 14.4354 14.3305C14.4354 14.2721 14.4004 14.2255 14.3567 14.2255C14.3077 14.2255 14.278 14.1759 14.278 14.0942C14.278 14.0126 14.2482 13.963 14.1992 13.963C14.1559 13.963 14.1205 13.9276 14.1205 13.8843C14.1205 13.841 14.0851 13.8055 14.0418 13.8055C13.9984 13.8055 13.963 13.7701 13.963 13.7268C13.963 13.6835 13.9276 13.6481 13.8843 13.6481C13.841 13.6481 13.8055 13.6126 13.8055 13.5693C13.8055 13.526 13.7701 13.4906 13.7268 13.4906C13.6835 13.4906 13.6481 13.4552 13.6481 13.4118C13.6481 13.3685 13.6126 13.3331 13.5693 13.3331C13.526 13.3331 13.4906 13.2977 13.4906 13.2544C13.4906 13.2111 13.4552 13.1756 13.4118 13.1756C13.3685 13.1756 13.3331 13.1402 13.3331 13.0969C13.3331 13.0536 13.2977 13.0182 13.2544 13.0182C13.2111 13.0182 13.1756 12.9827 13.1756 12.9394C13.1756 12.8961 13.1402 12.8607 13.0969 12.8607C13.0536 12.8607 13.0182 12.8252 13.0182 12.7819C13.0182 12.7386 12.9827 12.7032 12.9394 12.7032C12.8961 12.7032 12.8607 12.6697 12.8607 12.6286C12.8607 12.5876 12.7898 12.5385 12.7032 12.5195C12.6166 12.5005 12.5457 12.4631 12.5457 12.4366C12.5457 12.41 12.5103 12.3882 12.467 12.3882C12.4237 12.3882 12.3882 12.3547 12.3882 12.3136C12.3882 12.2727 12.3174 12.2235 12.2308 12.2045C12.1441 12.1855 12.0733 12.1482 12.0733 12.1216C12.0733 12.095 12.0379 12.0733 11.9945 12.0733C11.9512 12.0733 11.9158 12.0379 11.9158 11.9945C11.9158 11.9453 11.866 11.9158 11.7829 11.9158C11.7098 11.9158 11.637 11.8818 11.6211 11.8403C11.6051 11.7987 11.5232 11.7496 11.439 11.7311C11.3548 11.7126 11.2859 11.6758 11.2859 11.6492C11.2859 11.6226 11.2521 11.6009 11.2109 11.6009C11.1697 11.6009 11.1034 11.5683 11.0636 11.5285C11.0238 11.4887 10.9158 11.4396 10.8236 11.4193C10.7314 11.3991 10.656 11.3608 10.656 11.3342C10.656 11.3076 10.5962 11.2859 10.5231 11.2859C10.45 11.2859 10.3766 11.2505 10.36 11.2072C10.343 11.1629 10.2649 11.1284 10.1817 11.1284C10.1002 11.1284 9.99815 11.093 9.95484 11.0497C9.91154 11.0064 9.80524 10.9709 9.71863 10.9709C9.63201 10.9709 9.52955 10.9393 9.49097 10.9008C9.45238 10.8622 9.31737 10.8167 9.19092 10.7998C9.06452 10.7828 8.94678 10.7468 8.9293 10.7198C8.91182 10.6927 8.77098 10.6587 8.61628 10.6442C8.46164 10.6297 8.31991 10.5937 8.30133 10.5643C8.2828 10.5348 8.08333 10.5016 7.85813 10.4903C7.63294 10.4791 7.43216 10.4444 7.41195 10.4132C7.39095 10.3807 7.10597 10.3435 6.74655 10.3262C6.37249 10.3082 6.11029 10.2732 6.09911 10.2398C6.07612 10.1707 3.62199 10.1603 3.62199 10.2293ZM21.3024 10.2387C21.2915 10.2712 21.0042 10.3067 20.6024 10.3252C20.2073 10.3434 19.9055 10.3805 19.8842 10.4133C19.864 10.4444 19.6632 10.479 19.438 10.4901C19.1612 10.5038 19.015 10.5339 18.9866 10.5831C18.959 10.6309 18.8482 10.656 18.6641 10.656C18.4632 10.656 18.3751 10.6783 18.3534 10.7347C18.3336 10.7863 18.2518 10.8135 18.116 10.8135C18.0019 10.8135 17.9006 10.8377 17.8908 10.8672C17.881 10.8968 17.7786 10.9358 17.6633 10.9539C17.548 10.972 17.4349 11.0187 17.4118 11.0577C17.3878 11.098 17.2806 11.1284 17.1624 11.1284C17.0131 11.1284 16.9551 11.1505 16.9551 11.2072C16.9551 11.2597 16.9026 11.2859 16.7976 11.2859C16.6926 11.2859 16.6401 11.3121 16.6401 11.3646C16.6401 11.4171 16.5876 11.4434 16.4827 11.4434C16.3777 11.4434 16.3252 11.4696 16.3252 11.5221C16.3252 11.5746 16.2727 11.6009 16.1677 11.6009C16.0627 11.6009 16.0102 11.6271 16.0102 11.6796C16.0102 11.7321 15.9577 11.7583 15.8527 11.7583C15.7478 11.7583 15.6953 11.7846 15.6953 11.8371C15.6953 11.8896 15.6428 11.9158 15.5378 11.9158C15.4328 11.9158 15.3803 11.9421 15.3803 11.9945C15.3803 12.0379 15.3449 12.0733 15.3016 12.0733C15.2583 12.0733 15.2228 12.1087 15.2228 12.152C15.2228 12.2045 15.1703 12.2308 15.0654 12.2308C14.9787 12.2308 14.9079 12.2544 14.9079 12.2833C14.9079 12.3121 14.9433 12.3357 14.9866 12.3357C15.0303 12.3357 15.0654 12.3824 15.0654 12.4407C15.0654 12.4991 15.1004 12.5457 15.1441 12.5457C15.1931 12.5457 15.2228 12.5953 15.2228 12.6769C15.2228 12.7586 15.2526 12.8082 15.3016 12.8082C15.3449 12.8082 15.3803 12.8436 15.3803 12.8869C15.3803 12.9302 15.4157 12.9657 15.4591 12.9657C15.5028 12.9657 15.5378 13.0123 15.5378 13.0706C15.5378 13.129 15.5728 13.1756 15.6165 13.1756C15.6598 13.1756 15.6953 13.2111 15.6953 13.2544C15.6953 13.2977 15.7307 13.3331 15.774 13.3331C15.8173 13.3331 15.8527 13.3584 15.8527 13.3893C15.8527 13.4203 15.8882 13.481 15.9315 13.5243C15.9748 13.5676 16.0102 13.6486 16.0102 13.7043C16.0102 13.76 16.0457 13.8055 16.089 13.8055C16.1323 13.8055 16.1677 13.8308 16.1677 13.8618C16.1677 13.8927 16.2031 13.9535 16.2464 13.9968C16.2897 14.0401 16.3252 14.1211 16.3252 14.1767C16.3252 14.2324 16.3606 14.278 16.4039 14.278C16.4529 14.278 16.4827 14.3275 16.4827 14.4092C16.4827 14.4909 16.5124 14.5404 16.5614 14.5404C16.6139 14.5404 16.6401 14.5929 16.6401 14.6979C16.6401 14.8029 16.6664 14.8554 16.7189 14.8554C16.7714 14.8554 16.7976 14.9079 16.7976 15.0129C16.7976 15.1179 16.8239 15.1703 16.8764 15.1703C16.9288 15.1703 16.9551 15.2228 16.9551 15.3278C16.9551 15.4328 16.9813 15.4853 17.0338 15.4853C17.0863 15.4853 17.1126 15.5378 17.1126 15.6428C17.1126 15.7478 17.1388 15.8003 17.1913 15.8003C17.2463 15.8003 17.27 15.8557 17.27 15.984C17.27 16.1123 17.2938 16.1677 17.3488 16.1677C17.4056 16.1677 17.4275 16.226 17.4275 16.3777C17.4275 16.5293 17.4494 16.5876 17.5063 16.5876C17.5496 16.5876 17.585 16.6231 17.585 16.6664C17.585 16.7097 17.6204 16.7451 17.6637 16.7451C17.707 16.7451 17.7425 16.7234 17.7425 16.6968C17.7425 16.6702 17.8133 16.6329 17.9 16.6139C17.9866 16.5949 18.0574 16.5578 18.0574 16.5316C18.0574 16.5054 18.1504 16.469 18.2641 16.4508C18.3778 16.4327 18.4834 16.3851 18.4987 16.3452C18.5141 16.3053 18.5962 16.2727 18.6813 16.2727C18.7665 16.2727 18.8441 16.2485 18.854 16.2189C18.8638 16.1894 18.966 16.15 19.081 16.1313C19.196 16.1126 19.3215 16.0659 19.3599 16.0275C19.3983 15.9891 19.4969 15.9577 19.5791 15.9577C19.6612 15.9577 19.7368 15.9326 19.7471 15.9018C19.7573 15.8711 19.8715 15.8322 20.0008 15.8153C20.1301 15.7984 20.2511 15.7612 20.2696 15.7327C20.2882 15.7042 20.4299 15.6691 20.5846 15.6545C20.7393 15.64 20.8789 15.608 20.895 15.5833C20.911 15.5585 21.0764 15.5228 21.2624 15.5038C21.4485 15.4848 21.6141 15.4489 21.6306 15.4239C21.647 15.3989 21.8596 15.3635 22.103 15.3452C22.3464 15.3269 22.5608 15.2885 22.5795 15.2599C22.5982 15.2313 22.9584 15.1962 23.38 15.1819C23.9577 15.1623 24.1466 15.1392 24.1466 15.0881C24.1466 15.0509 24.1781 14.9889 24.2166 14.9503C24.2621 14.9049 24.2986 14.6691 24.3211 14.2775C24.3401 13.9459 24.3794 13.6667 24.4086 13.657C24.4809 13.6328 24.4814 10.656 24.409 10.656C24.3802 10.656 24.3565 10.5883 24.3565 10.5056C24.3565 10.3666 24.3383 10.3528 24.113 10.3219C23.9791 10.3036 23.8019 10.2885 23.7193 10.2885C23.6367 10.2885 23.5692 10.2649 23.5692 10.236C23.5692 10.1621 21.327 10.1647 21.3024 10.2387ZM1.11547 16.7804C0.749384 16.792 0.472433 16.8228 0.472433 16.8517C0.472433 16.8797 0.401568 16.9026 0.314955 16.9026H0.157478V17.2176C0.157478 17.4625 0.139998 17.5325 0.0787388 17.5325C0.0103935 17.5325 0 17.7512 0 19.186C0 20.6208 0.0103935 20.8395 0.0787388 20.8395C0.144354 20.8395 0.157478 20.9445 0.157478 21.4694C0.157478 21.9944 0.170601 22.0994 0.236216 22.0994C0.300362 22.0994 0.314955 22.1869 0.314955 22.5718C0.314955 22.9567 0.329548 23.0442 0.393694 23.0442C0.454953 23.0442 0.472433 23.1142 0.472433 23.3592C0.472433 23.6042 0.489913 23.6741 0.551172 23.6741C0.61243 23.6741 0.62991 23.7441 0.62991 23.9891C0.62991 24.2341 0.64739 24.304 0.708649 24.304C0.766968 24.304 0.787388 24.3653 0.787388 24.5403C0.787388 24.7152 0.807808 24.7765 0.866127 24.7765C0.924446 24.7765 0.944866 24.8377 0.944866 25.0127C0.944866 25.1877 0.965285 25.2489 1.0236 25.2489C1.0761 25.2489 1.10234 25.3014 1.10234 25.4064C1.10234 25.5114 1.12859 25.5639 1.18108 25.5639C1.23756 25.5639 1.25982 25.6216 1.25982 25.7682C1.25982 25.9014 1.28722 25.9831 1.33856 26.0028C1.3846 26.0204 1.4173 26.0991 1.4173 26.1922C1.4173 26.2986 1.44339 26.3513 1.49604 26.3513C1.54407 26.3513 1.57478 26.4002 1.57478 26.4769C1.57478 26.546 1.61021 26.6161 1.65351 26.6327C1.69682 26.6493 1.73225 26.7227 1.73225 26.7958C1.73225 26.8789 1.76175 26.9287 1.81099 26.9287C1.86349 26.9287 1.88973 26.9812 1.88973 27.0862C1.88973 27.1911 1.91598 27.2436 1.96847 27.2436C2.0122 27.2436 2.04721 27.2903 2.04721 27.3486C2.04721 27.4069 2.08222 27.4536 2.12595 27.4536C2.17492 27.4536 2.20469 27.5032 2.20469 27.5848C2.20469 27.6665 2.23445 27.7161 2.28343 27.7161C2.32715 27.7161 2.36216 27.7627 2.36216 27.821C2.36216 27.8794 2.39718 27.926 2.4409 27.926C2.48421 27.926 2.51964 27.9615 2.51964 28.0048C2.51964 28.0481 2.54279 28.0835 2.57114 28.0835C2.59943 28.0835 2.63743 28.1426 2.65554 28.2147C2.67365 28.2869 2.72137 28.346 2.76153 28.346C2.80174 28.346 2.8346 28.3932 2.8346 28.451C2.8346 28.5093 2.86961 28.5559 2.91334 28.5559C2.95664 28.5559 2.99207 28.5914 2.99207 28.6347C2.99207 28.678 3.02751 28.7134 3.07081 28.7134C3.11412 28.7134 3.14955 28.7389 3.14955 28.7701C3.14955 28.8012 3.25585 28.933 3.38577 29.0629C3.51569 29.1928 3.62199 29.3327 3.62199 29.3737C3.62199 29.4148 3.65742 29.4483 3.70072 29.4483C3.74403 29.4483 3.77946 29.4837 3.77946 29.5271C3.77946 29.5704 3.8149 29.6058 3.8582 29.6058C3.90151 29.6058 3.93694 29.6412 3.93694 29.6845C3.93694 29.7278 3.97258 29.7633 4.0162 29.7633C4.05977 29.7633 4.13589 29.8105 4.18534 29.8683C4.23478 29.926 4.29678 29.9732 4.32318 29.9732C4.34953 29.9732 4.4258 30.0323 4.49273 30.1045C4.55961 30.1767 4.63908 30.2357 4.66932 30.2357C4.6996 30.2357 4.72433 30.2711 4.72433 30.3144C4.72433 30.3577 4.75976 30.3932 4.80307 30.3932C4.84637 30.3932 4.88181 30.426 4.88181 30.4663C4.88181 30.5064 4.94086 30.5541 5.01304 30.5722C5.08521 30.5903 5.14427 30.6283 5.14427 30.6566C5.14427 30.685 5.19151 30.7081 5.24925 30.7081C5.307 30.7081 5.35424 30.7417 5.35424 30.7827C5.35424 30.8237 5.4251 30.8729 5.51172 30.8919C5.59833 30.9109 5.66919 30.9456 5.66919 30.9691C5.66919 30.9925 5.72825 31.0266 5.80043 31.0447C5.8726 31.0628 5.93166 31.1008 5.93166 31.1291C5.93166 31.1574 5.9789 31.1806 6.03664 31.1806C6.09496 31.1806 6.14163 31.2156 6.14163 31.2593C6.14163 31.3085 6.19139 31.338 6.27449 31.338C6.34761 31.338 6.42099 31.3735 6.43758 31.4168C6.45422 31.4601 6.52509 31.4955 6.59506 31.4955C6.66508 31.4955 6.73595 31.531 6.75254 31.5743C6.76918 31.6176 6.84004 31.653 6.91001 31.653C6.98004 31.653 7.0509 31.6884 7.06749 31.7317C7.0845 31.776 7.16261 31.8105 7.24586 31.8105C7.32728 31.8105 7.42937 31.8459 7.47268 31.8892C7.51599 31.9325 7.61289 31.968 7.68806 31.968C7.76323 31.968 7.83829 32.0034 7.85488 32.0467C7.87467 32.0982 7.95645 32.1254 8.09109 32.1254C8.22579 32.1254 8.30757 32.1527 8.32731 32.2042C8.3471 32.2557 8.42888 32.2829 8.56353 32.2829C8.69822 32.2829 8.78001 32.3102 8.79974 32.3617C8.82016 32.4148 8.90363 32.4404 9.05685 32.4404C9.18158 32.4404 9.31664 32.4734 9.35695 32.5137C9.39727 32.554 9.56425 32.5953 9.72802 32.6055L10.0258 32.6241L10.039 30.3519C10.0484 28.7584 10.0697 28.0684 10.1106 28.0422C10.1428 28.0215 10.181 27.7856 10.1962 27.513C10.2113 27.2426 10.2464 27.0064 10.2743 26.9881C10.3022 26.9699 10.34 26.7913 10.3582 26.5913C10.3764 26.3913 10.4122 26.2141 10.4376 26.1976C10.4631 26.181 10.496 26.0386 10.5108 25.881C10.5256 25.7235 10.5643 25.5857 10.5968 25.5748C10.6294 25.564 10.656 25.4501 10.656 25.3216C10.656 25.1625 10.6811 25.0785 10.7347 25.0579C10.7861 25.0382 10.8135 24.9566 10.8135 24.8234C10.8135 24.6767 10.8357 24.619 10.8922 24.619C10.9505 24.619 10.9709 24.5577 10.9709 24.3828C10.9709 24.2179 10.9926 24.1466 11.0428 24.1466C11.0875 24.1466 11.1258 24.0629 11.1444 23.9246C11.1608 23.8025 11.1993 23.6942 11.23 23.684C11.2608 23.6738 11.2859 23.5965 11.2859 23.5123C11.2859 23.4112 11.3127 23.3592 11.3646 23.3592C11.4171 23.3592 11.4434 23.3067 11.4434 23.2017C11.4434 23.0967 11.4696 23.0442 11.5221 23.0442C11.5746 23.0442 11.6009 22.9917 11.6009 22.8867C11.6009 22.7818 11.6271 22.7293 11.6796 22.7293C11.7321 22.7293 11.7583 22.6768 11.7583 22.5718C11.7583 22.4668 11.7846 22.4143 11.8371 22.4143C11.8896 22.4143 11.9158 22.3618 11.9158 22.2568C11.9158 22.1558 11.9425 22.0994 11.9904 22.0994C12.0314 22.0994 12.0805 22.0285 12.0995 21.9419C12.1185 21.8553 12.1559 21.7844 12.1824 21.7844C12.209 21.7844 12.2308 21.749 12.2308 21.7057C12.2308 21.6624 12.2662 21.6269 12.3095 21.6269C12.362 21.6269 12.3882 21.5744 12.3882 21.4694C12.3882 21.3645 12.4145 21.312 12.467 21.312C12.5103 21.312 12.5457 21.2765 12.5457 21.2332C12.5457 21.1899 12.5812 21.1545 12.6245 21.1545C12.6769 21.1545 12.7032 21.102 12.7032 20.997C12.7032 20.892 12.7294 20.8395 12.7819 20.8395C12.8344 20.8395 12.8607 20.787 12.8607 20.6821C12.8607 20.5771 12.8344 20.5246 12.7819 20.5246C12.7386 20.5246 12.7032 20.4892 12.7032 20.4458C12.7032 20.4025 12.6678 20.3671 12.6245 20.3671C12.5812 20.3671 12.5457 20.3317 12.5457 20.2884C12.5457 20.2451 12.5103 20.2096 12.467 20.2096C12.4237 20.2096 12.3882 20.1742 12.3882 20.1309C12.3882 20.0876 12.3528 20.0522 12.3095 20.0522C12.2662 20.0522 12.2308 20.0167 12.2308 19.9734C12.2308 19.9301 12.1953 19.8947 12.152 19.8947C12.1087 19.8947 12.0733 19.8592 12.0733 19.8159C12.0733 19.7726 12.0379 19.7372 11.9945 19.7372C11.9512 19.7372 11.9158 19.714 11.9158 19.6857C11.9158 19.6574 11.8568 19.6194 11.7846 19.6013C11.7124 19.5832 11.6533 19.5355 11.6533 19.4953C11.6533 19.4551 11.6061 19.4222 11.5484 19.4222C11.49 19.4222 11.4434 19.3872 11.4434 19.3435C11.4434 19.3002 11.4181 19.2648 11.3872 19.2648C11.3562 19.2648 11.2954 19.2293 11.2521 19.186C11.2088 19.1427 11.1278 19.1073 11.0722 19.1073C11.0165 19.1073 10.9709 19.0719 10.9709 19.0285C10.9709 18.9852 10.9355 18.9498 10.8922 18.9498C10.8489 18.9498 10.8135 18.9281 10.8135 18.9015C10.8135 18.8749 10.7426 18.8376 10.656 18.8186C10.5694 18.7996 10.4985 18.7504 10.4985 18.7094C10.4985 18.6658 10.4464 18.6349 10.3729 18.6349C10.3038 18.6349 10.2337 18.5994 10.217 18.5561C10.2005 18.5128 10.1296 18.4774 10.0596 18.4774C9.98959 18.4774 9.91873 18.4419 9.90209 18.3986C9.8855 18.3553 9.83574 18.3199 9.79149 18.3199C9.74729 18.3199 9.71112 18.2982 9.71112 18.2716C9.71112 18.245 9.64025 18.2077 9.55364 18.1887C9.46703 18.1697 9.39616 18.1326 9.39616 18.1064C9.39616 18.0802 9.30315 18.0438 9.18945 18.0256C9.07575 18.0075 8.97019 17.9599 8.95486 17.92C8.93953 17.8801 8.85738 17.8475 8.77229 17.8475C8.68715 17.8475 8.60946 17.8233 8.59959 17.7937C8.58978 17.7642 8.48762 17.7247 8.37261 17.7061C8.2576 17.6874 8.13209 17.6407 8.09367 17.6023C8.0553 17.5639 7.94286 17.5325 7.84391 17.5325C7.74491 17.5325 7.66391 17.5111 7.66391 17.485C7.66391 17.4588 7.53987 17.4205 7.38833 17.3999C7.23678 17.3792 7.09914 17.341 7.08256 17.3148C7.06592 17.2887 6.92419 17.2525 6.7676 17.2344C6.61096 17.2163 6.46965 17.1816 6.45359 17.1572C6.43753 17.1329 6.24262 17.0976 6.02053 17.0788C5.79843 17.06 5.6167 17.0267 5.6167 17.0048C5.6167 16.9829 5.38642 16.9478 5.1049 16.927C4.82338 16.9062 4.58071 16.8699 4.56559 16.8464C4.53399 16.7972 2.07199 16.7502 1.11547 16.7804ZM24.1334 16.7802C23.8231 16.7917 23.5692 16.8205 23.5692 16.8442C23.5692 16.8678 23.3159 16.9035 23.0065 16.9235C22.697 16.9435 22.4313 16.9796 22.4159 17.0037C22.4006 17.0278 22.1932 17.0646 21.955 17.0855C21.7168 17.1064 21.5219 17.1423 21.5219 17.1654C21.5219 17.1884 21.3802 17.2237 21.207 17.2438C21.0338 17.2639 20.892 17.2986 20.892 17.3209C20.892 17.3432 20.7739 17.3772 20.6296 17.3963C20.4852 17.4155 20.3671 17.4539 20.3671 17.4818C20.3671 17.5097 20.2719 17.5325 20.1555 17.5325C20.0158 17.5325 19.9336 17.5593 19.9137 17.6112C19.8967 17.6555 19.8186 17.69 19.7353 17.69C19.6539 17.69 19.5558 17.7214 19.5174 17.7598C19.479 17.7982 19.3552 17.8446 19.2423 17.863C19.1294 17.8813 19.0231 17.9188 19.006 17.9464C18.989 17.974 18.9103 18.0129 18.8312 18.0327C18.7521 18.0526 18.6873 18.0899 18.6873 18.1156C18.6873 18.1414 18.6418 18.1624 18.5861 18.1624C18.5304 18.1624 18.4534 18.1939 18.415 18.2323C18.3765 18.2708 18.2804 18.3184 18.2013 18.3383C18.1222 18.3582 18.0574 18.3957 18.0574 18.4217C18.0574 18.4477 17.9866 18.4846 17.9 18.5036C17.8133 18.5226 17.7425 18.5599 17.7425 18.5865C17.7425 18.6131 17.707 18.6349 17.6637 18.6349C17.6204 18.6349 17.585 18.6703 17.585 18.7136C17.585 18.7661 17.5325 18.7923 17.4275 18.7923C17.3265 18.7923 17.27 18.819 17.27 18.8669C17.27 18.9079 17.1992 18.9571 17.1126 18.9761C17.026 18.9951 16.9551 19.0324 16.9551 19.0589C16.9551 19.0856 16.9197 19.1073 16.8764 19.1073C16.833 19.1073 16.7976 19.1427 16.7976 19.186C16.7976 19.2293 16.7622 19.2648 16.7189 19.2648C16.6756 19.2648 16.6401 19.3002 16.6401 19.3435C16.6401 19.396 16.5876 19.4222 16.4827 19.4222C16.3777 19.4222 16.3252 19.4485 16.3252 19.501C16.3252 19.5443 16.2897 19.5797 16.2464 19.5797C16.2031 19.5797 16.1677 19.6152 16.1677 19.6585C16.1677 19.7018 16.1323 19.7372 16.089 19.7372C16.0457 19.7372 16.0102 19.7726 16.0102 19.8159C16.0102 19.8592 15.9748 19.8947 15.9315 19.8947C15.8882 19.8947 15.8527 19.9301 15.8527 19.9734C15.8527 20.0167 15.8173 20.0522 15.774 20.0522C15.7307 20.0522 15.6953 20.0857 15.6953 20.1267C15.6953 20.1677 15.6244 20.2169 15.5378 20.2359C15.4157 20.2627 15.3803 20.299 15.3803 20.3975C15.3803 20.4755 15.3499 20.5246 15.3016 20.5246C15.2583 20.5246 15.2228 20.56 15.2228 20.6033C15.2228 20.6466 15.1874 20.6821 15.1441 20.6821C15.1008 20.6821 15.0654 20.7175 15.0654 20.7608C15.0654 20.8041 15.0299 20.8395 14.9866 20.8395C14.9433 20.8395 14.9079 20.875 14.9079 20.9183C14.9079 20.9616 14.8724 20.997 14.8291 20.997C14.7858 20.997 14.7504 21.0324 14.7504 21.0758C14.7504 21.1191 14.715 21.1545 14.6717 21.1545C14.6284 21.1545 14.5929 21.1899 14.5929 21.2332C14.5929 21.2765 14.5575 21.312 14.5142 21.312C14.4709 21.312 14.4354 21.3474 14.4354 21.3907C14.4354 21.434 14.4 21.4694 14.3567 21.4694C14.3042 21.4694 14.278 21.5219 14.278 21.6269C14.278 21.7319 14.2517 21.7844 14.1992 21.7844C14.1559 21.7844 14.1205 21.8198 14.1205 21.8631C14.1205 21.9065 14.0988 21.9419 14.0721 21.9419C14.0456 21.9419 14.0083 22.0127 13.9893 22.0994C13.9703 22.186 13.9211 22.2568 13.8801 22.2568C13.8391 22.2568 13.8055 22.2923 13.8055 22.3356C13.8055 22.3789 13.7701 22.4143 13.7268 22.4143C13.6743 22.4143 13.6481 22.4668 13.6481 22.5718C13.6481 22.6768 13.6218 22.7293 13.5693 22.7293C13.5168 22.7293 13.4906 22.7818 13.4906 22.8867C13.4906 22.9917 13.4643 23.0442 13.4118 23.0442C13.3638 23.0442 13.3331 23.0932 13.3331 23.1698C13.3331 23.2389 13.2977 23.3091 13.2544 23.3257C13.2111 23.3423 13.1756 23.4131 13.1756 23.4832C13.1756 23.5531 13.1402 23.624 13.0969 23.6406C13.0509 23.6583 13.0182 23.737 13.0182 23.83C13.0182 23.9364 12.9921 23.9891 12.9394 23.9891C12.8899 23.9891 12.8607 24.0391 12.8607 24.1241C12.8607 24.1983 12.8252 24.2945 12.7819 24.3378C12.7386 24.3811 12.7032 24.4832 12.7032 24.5646C12.7032 24.6479 12.6687 24.726 12.6245 24.743C12.5705 24.7637 12.5457 24.848 12.5457 25.0111C12.5457 25.1875 12.5254 25.2489 12.467 25.2489C12.4087 25.2489 12.3882 25.3102 12.3882 25.4851C12.3882 25.6601 12.3678 25.7213 12.3095 25.7213C12.2514 25.7213 12.2308 25.7821 12.2308 25.9532C12.2308 26.0859 12.204 26.1939 12.1682 26.2059C12.1311 26.2182 12.0965 26.3742 12.083 26.5908C12.0704 26.7911 12.0342 26.9715 12.0023 26.9917C11.9705 27.0119 11.9352 27.2127 11.924 27.4379C11.9128 27.663 11.8787 27.863 11.8483 27.8822C11.8161 27.9025 11.7829 28.2144 11.7688 28.6302C11.7555 29.0224 11.7241 29.3433 11.699 29.3433C11.6739 29.3433 11.6533 29.8984 11.6533 30.5769C11.6533 31.3643 11.6723 31.8105 11.7058 31.8105C11.7374 31.8105 11.7583 32.027 11.7583 32.3551V32.8998L12.0575 32.9246C12.222 32.9383 12.3658 32.9767 12.3768 33.0099C12.4049 33.0942 15.8353 33.0963 15.8634 33.012C15.8754 32.9761 16.1137 32.9431 16.4846 32.9259C16.8297 32.9099 17.102 32.8737 17.1231 32.841C17.1433 32.8096 17.3441 32.7748 17.5693 32.7637C17.846 32.7501 17.9923 32.72 18.0207 32.6707C18.0485 32.6224 18.1604 32.5979 18.3525 32.5979C18.5402 32.5979 18.6701 32.5701 18.7211 32.5191C18.7668 32.4734 18.895 32.4404 19.0267 32.4404C19.1799 32.4404 19.2633 32.4148 19.2838 32.3617C19.3035 32.3102 19.3853 32.2829 19.52 32.2829C19.6546 32.2829 19.7364 32.2557 19.7562 32.2042C19.7736 32.1588 19.852 32.1254 19.9411 32.1254C20.0263 32.1254 20.104 32.1012 20.1138 32.0717C20.1236 32.0421 20.2258 32.0027 20.3408 31.984C20.4558 31.9654 20.5813 31.9187 20.6198 31.8803C20.6581 31.8419 20.7351 31.8105 20.7908 31.8105C20.8465 31.8105 20.892 31.7871 20.892 31.7586C20.892 31.7301 20.985 31.6918 21.0987 31.6737C21.2124 31.6555 21.318 31.608 21.3333 31.5681C21.3487 31.5282 21.4209 31.4955 21.4941 31.4955C21.5671 31.4955 21.6269 31.4712 21.6269 31.4414C21.6269 31.4116 21.6683 31.3716 21.7188 31.3525C21.7693 31.3333 21.8419 31.2868 21.88 31.2491C21.9182 31.2114 21.995 31.1806 22.0506 31.1806C22.1063 31.1806 22.1519 31.1574 22.1519 31.1291C22.1519 31.1008 22.2092 31.0632 22.2793 31.0456C22.3494 31.028 22.4195 30.9803 22.4351 30.9396C22.4507 30.8989 22.4997 30.8656 22.5439 30.8656C22.5881 30.8656 22.6243 30.8425 22.6243 30.8141C22.6243 30.7858 22.6816 30.7482 22.7517 30.7307C22.8218 30.7131 22.8919 30.6654 22.9075 30.6247C22.9232 30.5839 22.9721 30.5507 23.0164 30.5507C23.0606 30.5507 23.0967 30.5275 23.0967 30.4992C23.0967 30.4709 23.1558 30.4329 23.2279 30.4148C23.3001 30.3966 23.3592 30.3489 23.3592 30.3088C23.3592 30.2686 23.3946 30.2357 23.4379 30.2357C23.4812 30.2357 23.5167 30.2003 23.5167 30.157C23.5167 30.1137 23.5414 30.0782 23.5717 30.0782C23.6019 30.0782 23.6814 30.0192 23.7483 29.947C23.8152 29.8748 23.8877 29.8158 23.9094 29.8158C23.9708 29.8158 24.7765 28.9897 24.7765 28.9268C24.7765 28.896 24.8119 28.8709 24.8552 28.8709C24.8989 28.8709 24.934 28.8242 24.934 28.7659C24.934 28.7076 24.969 28.6609 25.0127 28.6609C25.056 28.6609 25.0914 28.6255 25.0914 28.5822C25.0914 28.5389 25.1243 28.5035 25.1645 28.5035C25.2047 28.5035 25.2524 28.4444 25.2705 28.3722C25.2886 28.3 25.3266 28.241 25.3549 28.241C25.3832 28.241 25.4064 28.2048 25.4064 28.1606C25.4064 28.1164 25.4397 28.0674 25.4804 28.0518C25.5211 28.0362 25.5688 27.9661 25.5864 27.896C25.604 27.8259 25.6416 27.7686 25.6698 27.7686C25.6982 27.7686 25.7213 27.7331 25.7213 27.6898C25.7213 27.6465 25.7568 27.6111 25.8001 27.6111C25.8434 27.6111 25.8788 27.5655 25.8788 27.5098C25.8788 27.4542 25.9143 27.3732 25.9576 27.3299C26.0009 27.2866 26.0363 27.214 26.0363 27.1686C26.0363 27.1233 26.0717 27.0862 26.115 27.0862C26.1643 27.0862 26.1938 27.0364 26.1938 26.9533C26.1938 26.8802 26.2292 26.8068 26.2725 26.7902C26.3158 26.7736 26.3513 26.7034 26.3513 26.6343C26.3513 26.5577 26.382 26.5087 26.43 26.5087C26.4825 26.5087 26.5087 26.4562 26.5087 26.3513C26.5087 26.2463 26.535 26.1938 26.5875 26.1938C26.6425 26.1938 26.6662 26.1383 26.6662 26.0101C26.6662 25.8818 26.6899 25.8263 26.7449 25.8263C26.8018 25.8263 26.8237 25.768 26.8237 25.6164C26.8237 25.4647 26.8456 25.4064 26.9024 25.4064C26.9549 25.4064 26.9812 25.3539 26.9812 25.2489C26.9812 25.1439 27.0074 25.0914 27.0599 25.0914C27.1183 25.0914 27.1386 25.03 27.1386 24.8536C27.1386 24.6905 27.1634 24.6062 27.2174 24.5855C27.2706 24.5651 27.2961 24.4816 27.2961 24.3284C27.2961 24.1968 27.3291 24.0685 27.3749 24.0228C27.4191 23.9786 27.4536 23.8504 27.4536 23.7304C27.4536 23.5754 27.4752 23.5167 27.5323 23.5167C27.5953 23.5167 27.6111 23.4379 27.6111 23.123C27.6111 22.808 27.6268 22.7293 27.6898 22.7293C27.754 22.7293 27.7686 22.6418 27.7686 22.2568C27.7686 21.882 27.7841 21.7844 27.8437 21.7844C27.9051 21.7844 27.9219 21.6292 27.9355 20.9357C27.9478 20.3156 27.97 20.0811 28.0179 20.0652C28.0655 20.0494 28.0835 19.8726 28.0835 19.4222C28.0835 18.9719 28.0655 18.7951 28.0179 18.7793C27.9695 18.7632 27.9479 18.5133 27.9358 17.83L27.9193 16.9026H27.7696C27.6872 16.9026 27.612 16.8793 27.6023 16.8507C27.5834 16.7946 25.1043 16.7442 24.1334 16.7802ZM10.0387 37.3034L10.0523 39.9731L14.0224 39.9865L17.9925 40L18.0243 39.8815C18.0417 39.8164 18.0563 38.608 18.0567 37.1961L18.0574 34.629L17.2842 34.6604C16.8154 34.6794 16.5036 34.7135 16.4924 34.7471C16.4636 34.8335 12.0891 34.8237 12.0602 34.7372C12.0442 34.6889 11.7746 34.6668 11.0318 34.6527L10.0251 34.6337L10.0387 37.3034Z" fill="#9C89FF"/>
<path fill-rule="evenodd" clip-rule="evenodd" d="M13.8308 0.0787433C13.8308 0.122052 13.7954 0.157487 13.7521 0.157487C13.7087 0.157487 13.6733 0.18111 13.6733 0.209982C13.6733 0.238855 13.6379 0.262478 13.5946 0.262478C13.5513 0.262478 13.5158 0.296023 13.5158 0.337074C13.5158 0.378073 13.445 0.427209 13.3583 0.446212C13.2717 0.465215 13.2009 0.514351 13.2009 0.55535C13.2009 0.596401 13.174 0.629946 13.1413 0.629946C13.1085 0.629946 13.0278 0.688059 12.962 0.759086C12.8962 0.83006 12.7813 0.9035 12.7066 0.922241C12.632 0.940982 12.5709 0.989173 12.5709 1.02933C12.5709 1.06954 12.5445 1.10241 12.5123 1.10241C12.48 1.10241 12.3619 1.1969 12.2498 1.31239C12.1378 1.42788 12.0224 1.52237 11.9935 1.52237C11.9646 1.52237 11.941 1.5578 11.941 1.60111C11.941 1.64442 11.9055 1.67986 11.8622 1.67986C11.8189 1.67986 11.7835 1.71529 11.7835 1.7586C11.7835 1.80191 11.748 1.83734 11.7047 1.83734C11.6614 1.83734 11.626 1.87278 11.626 1.91609C11.626 1.9594 11.5906 1.99483 11.5472 1.99483C11.5039 1.99483 11.4685 2.03026 11.4685 2.07357C11.4685 2.11688 11.4331 2.15232 11.3898 2.15232C11.3465 2.15232 11.311 2.18775 11.311 2.23106C11.311 2.27437 11.2756 2.3098 11.2323 2.3098C11.189 2.3098 11.1535 2.34524 11.1535 2.38855C11.1535 2.43186 11.1181 2.46729 11.0748 2.46729C11.0315 2.46729 10.996 2.50272 10.996 2.54603C10.996 2.58934 10.9606 2.62478 10.9173 2.62478C10.874 2.62478 10.8386 2.66021 10.8386 2.70352C10.8386 2.74683 10.8031 2.78226 10.7598 2.78226C10.7165 2.78226 10.6811 2.80699 10.6811 2.83728C10.6811 2.86752 10.622 2.94699 10.5498 3.01387C10.4776 3.08081 10.4186 3.15404 10.4186 3.17671C10.4186 3.19934 10.3359 3.29819 10.2349 3.3963C10.1338 3.49447 10.0511 3.59836 10.0511 3.62723C10.0511 3.6561 9.99537 3.73175 9.92718 3.79532C9.85899 3.85889 9.78539 3.96777 9.76355 4.03722C9.74171 4.10667 9.67085 4.21298 9.60607 4.27345C9.54129 4.33393 9.47042 4.44023 9.44858 4.50968C9.42674 4.57913 9.35424 4.68664 9.28742 4.74859C9.22059 4.81048 9.14993 4.92492 9.1304 5.00288C9.11082 5.08078 9.07565 5.14456 9.05219 5.14456C9.02872 5.14456 8.99444 5.21344 8.97591 5.29764C8.95743 5.38189 8.9083 5.46379 8.86677 5.47974C8.82525 5.4957 8.79123 5.56851 8.79123 5.64164C8.79123 5.71472 8.7695 5.77451 8.74288 5.77451C8.71632 5.77451 8.67899 5.84538 8.65999 5.93199C8.64099 6.01861 8.60555 6.08948 8.58125 6.08948C8.55694 6.08948 8.52151 6.16035 8.5025 6.24697C8.4835 6.33358 8.44927 6.40445 8.42649 6.40445C8.40371 6.40445 8.37195 6.50236 8.35588 6.622C8.33987 6.74163 8.30496 6.85387 8.27835 6.87135C8.25179 6.88883 8.21541 6.99576 8.19751 7.10889C8.17966 7.22207 8.14338 7.32838 8.11698 7.34512C8.09063 7.36192 8.05146 7.50555 8.03005 7.66435C8.00863 7.82315 7.97282 7.96488 7.95051 7.97932C7.9282 7.99376 7.90148 8.17093 7.89125 8.37304L7.87256 8.74051L8.08254 8.75751C8.19803 8.76691 8.31142 8.80822 8.33452 8.84938C8.36292 8.90009 8.47006 8.92424 8.66634 8.92424C8.85402 8.92424 8.98399 8.95201 9.03497 9.00298C9.08127 9.04928 9.20952 9.08173 9.34616 9.08173C9.51782 9.08173 9.57866 9.1023 9.57866 9.16047C9.57866 9.21853 9.6393 9.23921 9.80928 9.23921C9.96582 9.23921 10.0496 9.26451 10.0701 9.31796C10.0899 9.36945 10.1717 9.3967 10.3064 9.3967C10.441 9.3967 10.5228 9.42394 10.5426 9.47544C10.5592 9.51875 10.6342 9.55419 10.7094 9.55419C10.7846 9.55419 10.8815 9.58962 10.9248 9.63293C10.9681 9.67624 11.0727 9.71167 11.1573 9.71167C11.2589 9.71167 11.311 9.73834 11.311 9.79041C11.311 9.84228 11.3629 9.86916 11.4629 9.86916C11.5495 9.86916 11.6278 9.90302 11.645 9.9479C11.6616 9.99121 11.7324 10.0266 11.8025 10.0266C11.8725 10.0266 11.9433 10.0621 11.96 10.1054C11.9766 10.1487 12.0474 10.1841 12.1175 10.1841C12.1874 10.1841 12.2583 10.2196 12.2749 10.2629C12.2915 10.3062 12.3649 10.3416 12.438 10.3416C12.5211 10.3416 12.5709 10.3711 12.5709 10.4204C12.5709 10.4637 12.6063 10.4991 12.6497 10.4991C12.693 10.4991 12.7284 10.5208 12.7284 10.5475C12.7284 10.574 12.7993 10.6113 12.8859 10.6303C12.9725 10.6493 13.0434 10.6985 13.0434 10.7395C13.0434 10.7805 13.0788 10.8141 13.1221 10.8141C13.1654 10.8141 13.2009 10.8358 13.2009 10.8624C13.2009 10.889 13.2717 10.9263 13.3583 10.9453C13.445 10.9643 13.5158 11.0135 13.5158 11.0545C13.5158 11.1023 13.5723 11.1291 13.6733 11.1291C13.7744 11.1291 13.8308 11.1023 13.8308 11.0545C13.8308 11.0135 13.9017 10.9643 13.9883 10.9453C14.0749 10.9263 14.1458 10.889 14.1458 10.8624C14.1458 10.8358 14.1812 10.8141 14.2245 10.8141C14.2678 10.8141 14.3033 10.7805 14.3033 10.7395C14.3033 10.6985 14.3741 10.6493 14.4607 10.6303C14.5474 10.6113 14.6182 10.574 14.6182 10.5475C14.6182 10.5208 14.6537 10.4991 14.697 10.4991C14.7403 10.4991 14.7757 10.4637 14.7757 10.4204C14.7757 10.3679 14.8282 10.3416 14.9332 10.3416C15.0382 10.3416 15.0907 10.3154 15.0907 10.2629C15.0907 10.2104 15.1432 10.1841 15.2482 10.1841C15.3532 10.1841 15.4057 10.1579 15.4057 10.1054C15.4057 10.0529 15.4582 10.0266 15.5632 10.0266C15.6681 10.0266 15.7206 10.0004 15.7206 9.9479C15.7206 9.89541 15.7731 9.86916 15.8781 9.86916C15.9831 9.86916 16.0356 9.84291 16.0356 9.79041C16.0356 9.73792 16.0881 9.71167 16.1931 9.71167C16.2981 9.71167 16.3506 9.68542 16.3506 9.63293C16.3506 9.57461 16.4118 9.55419 16.5868 9.55419C16.7618 9.55419 16.823 9.53376 16.823 9.47544C16.823 9.41712 16.8843 9.3967 17.0593 9.3967C17.2342 9.3967 17.2955 9.37628 17.2955 9.31796C17.2955 9.25963 17.3568 9.23921 17.5317 9.23921C17.7067 9.23921 17.768 9.21879 17.768 9.16047C17.768 9.09994 17.8352 9.08173 18.0583 9.08173C18.268 9.08173 18.3571 9.05984 18.3789 9.00298C18.4006 8.9466 18.4887 8.92424 18.6896 8.92424C18.8749 8.92424 18.9844 8.8993 19.0121 8.85085C19.0421 8.79841 19.1953 8.77216 19.5485 8.75898C19.8834 8.74644 20.0498 8.71935 20.0646 8.67489C20.0767 8.63882 20.12 8.60927 20.1609 8.60927C20.2085 8.60927 20.2353 8.55268 20.2353 8.45178C20.2353 8.36516 20.215 8.29429 20.1903 8.29429C20.1656 8.29429 20.1295 8.12405 20.1102 7.91596C20.0908 7.70787 20.0557 7.52476 20.032 7.50912C20.0084 7.49342 19.9744 7.38801 19.9565 7.27488C19.9387 7.1617 19.9032 7.0554 19.8778 7.03865C19.8524 7.02185 19.8169 6.91555 19.799 6.80242C19.7812 6.68924 19.7455 6.58294 19.7197 6.56619C19.694 6.54939 19.6566 6.44713 19.6368 6.33883C19.6169 6.23059 19.5791 6.14198 19.5528 6.14198C19.5266 6.14198 19.4896 6.0593 19.4706 5.95824C19.4517 5.85719 19.417 5.77451 19.3936 5.77451C19.3703 5.77451 19.3356 5.70364 19.3166 5.61702C19.2976 5.5304 19.2628 5.45953 19.2394 5.45953C19.2159 5.45953 19.1819 5.40048 19.1638 5.3283C19.1457 5.25611 19.1077 5.19706 19.0794 5.19706C19.051 5.19706 19.0279 5.14981 19.0279 5.09207C19.0279 5.03374 18.9928 4.98707 18.9491 4.98707C18.8999 4.98707 18.8704 4.93731 18.8704 4.85421C18.8704 4.78108 18.8371 4.70853 18.7964 4.69289C18.7557 4.6773 18.7079 4.60716 18.6904 4.53708C18.6728 4.46695 18.6352 4.40962 18.6069 4.40962C18.5786 4.40962 18.5554 4.36238 18.5554 4.30463C18.5554 4.24631 18.5204 4.19964 18.4767 4.19964C18.4333 4.19964 18.3979 4.16421 18.3979 4.1209C18.3979 4.07759 18.3644 4.04216 18.3233 4.04216C18.2823 4.04216 18.2332 3.97129 18.2142 3.88467C18.1952 3.79805 18.1579 3.72718 18.1313 3.72718C18.1047 3.72718 18.0829 3.69175 18.0829 3.64844C18.0829 3.60513 18.0475 3.5697 18.0042 3.5697C17.9609 3.5697 17.9255 3.53426 17.9255 3.49095C17.9255 3.44764 17.8926 3.41221 17.8524 3.41221C17.8122 3.41221 17.7645 3.35315 17.7464 3.28097C17.7283 3.20879 17.6903 3.14973 17.662 3.14973C17.6336 3.14973 17.6105 3.1143 17.6105 3.07099C17.6105 3.02768 17.575 2.99224 17.5317 2.99224C17.4884 2.99224 17.453 2.95608 17.453 2.91187C17.453 2.86762 17.4176 2.81785 17.3742 2.80127C17.3309 2.78463 17.2955 2.73811 17.2955 2.6979C17.2955 2.65769 17.2601 2.62478 17.2168 2.62478C17.1735 2.62478 17.138 2.58934 17.138 2.54603C17.138 2.50272 17.1026 2.46729 17.0593 2.46729C17.016 2.46729 16.9805 2.43186 16.9805 2.38855C16.9805 2.34524 16.9451 2.3098 16.9018 2.3098C16.8585 2.3098 16.823 2.27437 16.823 2.23106C16.823 2.18775 16.7876 2.15232 16.7443 2.15232C16.701 2.15232 16.6656 2.11688 16.6656 2.07357C16.6656 2.03026 16.6301 1.99483 16.5868 1.99483C16.5435 1.99483 16.5081 1.9594 16.5081 1.91609C16.5081 1.87278 16.4833 1.83734 16.4531 1.83734C16.4228 1.83734 16.3433 1.77829 16.2765 1.7061C16.2095 1.63392 16.128 1.57487 16.0952 1.57487C16.0624 1.57487 16.0356 1.53943 16.0356 1.49612C16.0356 1.45281 16.0002 1.41738 15.9569 1.41738C15.9136 1.41738 15.8781 1.38194 15.8781 1.33864C15.8781 1.29533 15.8427 1.25989 15.7994 1.25989C15.7561 1.25989 15.7206 1.22635 15.7206 1.1853C15.7206 1.1443 15.6498 1.09516 15.5632 1.07616C15.4765 1.05715 15.4057 1.00802 15.4057 0.96702C15.4057 0.925969 15.3702 0.892424 15.3269 0.892424C15.2836 0.892424 15.2482 0.868801 15.2482 0.839928C15.2482 0.811056 15.2127 0.787433 15.1694 0.787433C15.1261 0.787433 15.0907 0.753888 15.0907 0.712836C15.0907 0.671837 15.0198 0.622702 14.9332 0.603699C14.8466 0.584695 14.7757 0.53556 14.7757 0.494561C14.7757 0.453509 14.7403 0.419964 14.697 0.419964C14.6537 0.419964 14.6182 0.396341 14.6182 0.367469C14.6182 0.338596 14.5828 0.314973 14.5395 0.314973C14.4962 0.314973 14.4607 0.281428 14.4607 0.240377C14.4607 0.199378 14.3899 0.150242 14.3033 0.131239C14.2166 0.112235 14.1458 0.0749114 14.1458 0.0483487C14.1458 0.0217334 14.0749 0 13.9883 0C13.8833 0 13.8308 0.0262478 13.8308 0.0787433Z" fill="#C3B7FF"/>
<path fill-rule="evenodd" clip-rule="evenodd" d="M24.129 16.7802C23.8186 16.7917 23.5647 16.8204 23.5647 16.8441C23.5647 16.8677 23.3115 16.9034 23.0021 16.9234C22.6926 16.9435 22.4269 16.9796 22.4115 17.0036C22.3962 17.0277 22.1888 17.0646 21.9506 17.0855C21.7124 17.1064 21.5175 17.1423 21.5175 17.1653C21.5175 17.1884 21.3758 17.2236 21.2026 17.2437C21.0293 17.2639 20.8876 17.2985 20.8876 17.3209C20.8876 17.3432 20.7695 17.3771 20.6252 17.3963C20.4808 17.4154 20.3627 17.4539 20.3627 17.4817C20.3627 17.5096 20.2675 17.5325 20.1511 17.5325C20.0114 17.5325 19.9292 17.5592 19.9093 17.6112C19.8923 17.6554 19.8141 17.6899 19.7309 17.6899C19.6495 17.6899 19.5514 17.7213 19.513 17.7597C19.4746 17.7981 19.3508 17.8446 19.2379 17.8629C19.125 17.8812 19.0187 17.9187 19.0016 17.9464C18.9845 17.974 18.9059 18.0128 18.8268 18.0327C18.7476 18.0525 18.6829 18.0898 18.6829 18.1155C18.6829 18.1413 18.6374 18.1624 18.5817 18.1624C18.526 18.1624 18.449 18.1938 18.4106 18.2322C18.3721 18.2707 18.276 18.3184 18.1968 18.3382C18.1177 18.3581 18.053 18.3956 18.053 18.4217C18.053 18.4477 17.9822 18.4846 17.8955 18.5036C17.8089 18.5226 17.7381 18.5599 17.7381 18.5865C17.7381 18.6131 17.7026 18.6348 17.6593 18.6348C17.616 18.6348 17.5806 18.6702 17.5806 18.7135C17.5806 18.766 17.5281 18.7923 17.4231 18.7923C17.3221 18.7923 17.2656 18.819 17.2656 18.8669C17.2656 18.9079 17.1948 18.957 17.1082 18.976C17.0215 18.995 16.9507 19.0323 16.9507 19.0589C16.9507 19.0855 16.9152 19.1072 16.8719 19.1072C16.8286 19.1072 16.7932 19.1427 16.7932 19.186C16.7932 19.2293 16.7578 19.2647 16.7145 19.2647C16.6711 19.2647 16.6357 19.3001 16.6357 19.3434C16.6357 19.3959 16.5832 19.4222 16.4782 19.4222C16.3733 19.4222 16.3208 19.4484 16.3208 19.5009C16.3208 19.5442 16.2853 19.5797 16.242 19.5797C16.1987 19.5797 16.1633 19.6151 16.1633 19.6584C16.1633 19.7017 16.1279 19.7371 16.0845 19.7371C16.0412 19.7371 16.0058 19.7726 16.0058 19.8159C16.0058 19.8592 15.9704 19.8946 15.9271 19.8946C15.8838 19.8946 15.8483 19.9301 15.8483 19.9734C15.8483 20.0167 15.8129 20.0521 15.7696 20.0521C15.7263 20.0521 15.6909 20.0856 15.6909 20.1267C15.6909 20.1677 15.62 20.2168 15.5334 20.2358C15.4113 20.2626 15.3759 20.299 15.3759 20.3974C15.3759 20.4754 15.3455 20.5245 15.2972 20.5245C15.2539 20.5245 15.2184 20.56 15.2184 20.6033C15.2184 20.6466 15.183 20.682 15.1397 20.682C15.0964 20.682 15.0609 20.7174 15.0609 20.7607C15.0609 20.8041 15.0255 20.8395 14.9822 20.8395C14.9389 20.8395 14.9035 20.8749 14.9035 20.9182C14.9035 20.9615 14.868 20.997 14.8247 20.997C14.7814 20.997 14.746 21.0324 14.746 21.0757C14.746 21.119 14.7106 21.1544 14.6672 21.1544C14.6239 21.1544 14.5885 21.1899 14.5885 21.2332C14.5885 21.2765 14.5531 21.3119 14.5098 21.3119C14.4665 21.3119 14.431 21.3474 14.431 21.3907C14.431 21.434 14.3956 21.4694 14.3523 21.4694C14.2998 21.4694 14.2736 21.5219 14.2736 21.6269C14.2736 21.7319 14.2473 21.7844 14.1948 21.7844C14.1515 21.7844 14.1161 21.8198 14.1161 21.8631C14.1161 21.9064 14.0943 21.9418 14.0677 21.9418C14.0412 21.9418 14.0038 22.0127 13.9848 22.0993C13.9658 22.1859 13.9167 22.2568 13.8757 22.2568C13.8347 22.2568 13.8011 22.2922 13.8011 22.3355C13.8011 22.3788 13.7657 22.4143 13.7224 22.4143C13.6699 22.4143 13.6436 22.4668 13.6436 22.5717C13.6436 22.6767 13.6174 22.7292 13.5649 22.7292C13.5124 22.7292 13.4862 22.7817 13.4862 22.8867C13.4862 22.9917 13.4599 23.0442 13.4074 23.0442C13.3594 23.0442 13.3287 23.0931 13.3287 23.1698C13.3287 23.2389 13.2933 23.309 13.2499 23.3256C13.2066 23.3422 13.1712 23.4131 13.1712 23.4831C13.1712 23.5531 13.1358 23.624 13.0925 23.6406C13.0464 23.6582 13.0137 23.7369 13.0137 23.8299C13.0137 23.9364 12.9876 23.989 12.935 23.989C12.8854 23.989 12.8563 24.039 12.8563 24.124C12.8563 24.1983 12.8208 24.2944 12.7775 24.3377C12.7342 24.3811 12.6988 24.4832 12.6988 24.5646C12.6988 24.6478 12.6643 24.7259 12.62 24.7429C12.5661 24.7636 12.5413 24.848 12.5413 25.011C12.5413 25.1874 12.521 25.2489 12.4626 25.2489C12.4042 25.2489 12.3838 25.3101 12.3838 25.4851C12.3838 25.66 12.3634 25.7213 12.3051 25.7213C12.247 25.7213 12.2263 25.782 12.2263 25.9532C12.2263 26.0858 12.1996 26.1939 12.1638 26.2058C12.1267 26.2182 12.0921 26.3741 12.0786 26.5908C12.066 26.791 12.0298 26.9714 11.9979 26.9916C11.966 27.0118 11.9308 27.2126 11.9196 27.4378C11.9083 27.663 11.8743 27.8629 11.8439 27.8821C11.8117 27.9024 11.7785 28.2143 11.7644 28.6301C11.7511 29.0223 11.7197 29.3433 11.6946 29.3433C11.6695 29.3433 11.6489 29.8984 11.6489 30.5769C11.6489 31.3642 11.6679 31.8104 11.7014 31.8104C11.733 31.8104 11.7539 32.027 11.7539 32.3551V32.8998L12.0531 32.9246C12.2176 32.9382 12.3614 32.9766 12.3724 33.0098C12.4005 33.0941 15.8309 33.0963 15.859 33.012C15.871 32.9761 16.1093 32.943 16.4802 32.9258C16.8253 32.9099 17.0976 32.8737 17.1186 32.8409C17.1389 32.8095 17.3396 32.7748 17.5648 32.7637C17.8416 32.75 17.9879 32.7199 18.0163 32.6707C18.0441 32.6224 18.156 32.5978 18.3481 32.5978C18.5357 32.5978 18.6657 32.57 18.7167 32.5191C18.7623 32.4734 18.8906 32.4403 19.0222 32.4403C19.1755 32.4403 19.2589 32.4148 19.2793 32.3616C19.2991 32.3101 19.3809 32.2829 19.5156 32.2829C19.6502 32.2829 19.732 32.2556 19.7518 32.2041C19.7692 32.1588 19.8476 32.1254 19.9367 32.1254C20.0219 32.1254 20.0995 32.1012 20.1094 32.0716C20.1192 32.0421 20.2214 32.0027 20.3364 31.984C20.4514 31.9653 20.5769 31.9186 20.6153 31.8802C20.6537 31.8418 20.7307 31.8104 20.7864 31.8104C20.842 31.8104 20.8876 31.7871 20.8876 31.7586C20.8876 31.73 20.9806 31.6918 21.0943 31.6736C21.208 31.6555 21.3136 31.6079 21.3289 31.568C21.3442 31.5281 21.4165 31.4955 21.4896 31.4955C21.5627 31.4955 21.6225 31.4711 21.6225 31.4414C21.6225 31.4115 21.6639 31.3715 21.7144 31.3524C21.7649 31.3333 21.8375 31.2868 21.8756 31.2491C21.9137 31.2114 21.9905 31.1805 22.0462 31.1805C22.1019 31.1805 22.1474 31.1574 22.1474 31.129C22.1474 31.1007 22.2048 31.0631 22.2749 31.0456C22.345 31.028 22.4151 30.9803 22.4307 30.9396C22.4463 30.8988 22.4952 30.8656 22.5395 30.8656C22.5837 30.8656 22.6199 30.8424 22.6199 30.8141C22.6199 30.7858 22.6772 30.7482 22.7473 30.7306C22.8174 30.713 22.8875 30.6653 22.9031 30.6246C22.9188 30.5839 22.9677 30.5506 23.0119 30.5506C23.0561 30.5506 23.0923 30.5275 23.0923 30.4991C23.0923 30.4708 23.1514 30.4328 23.2235 30.4147C23.2957 30.3966 23.3548 30.3489 23.3548 30.3087C23.3548 30.2685 23.3902 30.2357 23.4335 30.2357C23.4768 30.2357 23.5122 30.2002 23.5122 30.1569C23.5122 30.1136 23.537 30.0782 23.5673 30.0782C23.5975 30.0782 23.677 30.0191 23.7438 29.9469C23.8108 29.8748 23.8833 29.8157 23.905 29.8157C23.9664 29.8157 24.7721 28.9896 24.7721 28.9267C24.7721 28.896 24.8075 28.8708 24.8508 28.8708C24.8945 28.8708 24.9295 28.8242 24.9295 28.7659C24.9295 28.7075 24.9646 28.6609 25.0083 28.6609C25.0516 28.6609 25.087 28.6254 25.087 28.5821C25.087 28.5388 25.1199 28.5034 25.1601 28.5034C25.2002 28.5034 25.248 28.4443 25.2661 28.3722C25.2842 28.3 25.3222 28.2409 25.3505 28.2409C25.3788 28.2409 25.402 28.2048 25.402 28.1606C25.402 28.1163 25.4353 28.0674 25.476 28.0518C25.5167 28.0362 25.5644 27.966 25.582 27.896C25.5996 27.8258 25.6371 27.7685 25.6654 27.7685C25.6938 27.7685 25.7169 27.7331 25.7169 27.6898C25.7169 27.6465 25.7524 27.611 25.7957 27.611C25.839 27.611 25.8744 27.5655 25.8744 27.5098C25.8744 27.4541 25.9098 27.3731 25.9531 27.3298C25.9965 27.2865 26.0319 27.214 26.0319 27.1686C26.0319 27.1232 26.0673 27.0861 26.1106 27.0861C26.1599 27.0861 26.1894 27.0363 26.1894 26.9532C26.1894 26.8801 26.2248 26.8067 26.2681 26.7901C26.3114 26.7735 26.3468 26.7034 26.3468 26.6343C26.3468 26.5577 26.3775 26.5087 26.4256 26.5087C26.4781 26.5087 26.5043 26.4562 26.5043 26.3512C26.5043 26.2462 26.5306 26.1937 26.5831 26.1937C26.6381 26.1937 26.6618 26.1383 26.6618 26.01C26.6618 25.8817 26.6855 25.8263 26.7405 25.8263C26.7974 25.8263 26.8193 25.768 26.8193 25.6163C26.8193 25.4647 26.8412 25.4063 26.898 25.4063C26.9505 25.4063 26.9767 25.3538 26.9767 25.2489C26.9767 25.1439 27.003 25.0914 27.0555 25.0914C27.1139 25.0914 27.1342 25.03 27.1342 24.8535C27.1342 24.6905 27.159 24.6061 27.213 24.5855C27.2661 24.565 27.2917 24.4816 27.2917 24.3283C27.2917 24.1967 27.3247 24.0685 27.3704 24.0228C27.4146 23.9786 27.4492 23.8503 27.4492 23.7303C27.4492 23.5753 27.4708 23.5166 27.5279 23.5166C27.5909 23.5166 27.6067 23.4379 27.6067 23.1229C27.6067 22.808 27.6224 22.7292 27.6854 22.7292C27.7495 22.7292 27.7641 22.6417 27.7641 22.2568C27.7641 21.8819 27.7797 21.7844 27.8393 21.7844C27.9007 21.7844 27.9175 21.6291 27.9311 20.9357C27.9433 20.3156 27.9656 20.0811 28.0135 20.0652C28.061 20.0494 28.0791 19.8725 28.0791 19.4222C28.0791 18.9719 28.061 18.795 28.0135 18.7792C27.9651 18.7631 27.9435 18.5132 27.9314 17.83L27.9148 16.9025H27.7651C27.6828 16.9025 27.6076 16.8792 27.5979 16.8507C27.579 16.7946 25.0999 16.7442 24.129 16.7802Z" fill="#8073C5"/>
</svg>
